# xmcd CD database file
#
# Track frame offsets:
#	150
#	23827
#	41059
#	56666
#	74993
#	93035
#	108508
#	126533
#	144846
#
# Disc length: 2247 seconds
#
# Revision: 1
# Processed by: cddbd v1.5.1PL0 Copyright (c) Steve Scherf et al.
# Submitted via: CDex 1.50
#
DISCID=8308c509
DTITLE=Szekeres Tamás - Blues
DYEAR=1999
DGENRE=Blues
TTITLE0=King street blues
TTITLE1=The terrace
TTITLE2=Then and now
TTITLE3=Tears of Sahara
TTITLE4=CD shop
TTITLE5=Getting real
TTITLE6=Years outdoor
TTITLE7=Ear-clips
TTITLE8=Back to the light
EXTD=YEAR: 1999
EXTT0=
EXTT1=
EXTT2=
EXTT3=
EXTT4=
EXTT5=
EXTT6=
EXTT7=
EXTT8=
PLAYORDER=
